<svg xmlns="http://www.w3.org/2000/svg" width="386" height="304" viewBox="0 0 386 304" version="1.1"><path d="M 175.693 1.787 C 173.394 4.328, 170.996 10.451, 171.022 13.718 C 171.085 21.717, 178.575 30.152, 187.190 31.927 C 193.495 33.226, 197.621 32.289, 202.722 28.399 C 210.028 22.826, 212.205 10.310, 207.113 3.158 C 203.750 -1.564, 202.516 -0.881, 202.397 5.768 C 202.159 19.001, 192.441 26.628, 184.955 19.457 C 181.771 16.406, 179 8.898, 179 3.318 C 179 -0.410, 178.070 -0.840, 175.693 1.787 M 172 39.848 C 168.975 40.863, 163.800 42.830, 160.500 44.218 C 153.691 47.083, 145.547 48.626, 132.500 49.525 C 118.793 50.468, 115.366 52.795, 114.375 61.826 C 113.773 67.317, 116.766 74.120, 121.209 77.356 C 125.217 80.275, 133.631 80.657, 137.696 78.103 C 141.885 75.471, 144.341 71.596, 144.429 67.480 C 144.499 64.208, 144.610 64.128, 151.441 62.465 C 155.259 61.535, 162.459 59.196, 167.441 57.266 C 172.997 55.114, 178.434 53.707, 181.500 53.628 L 186.500 53.500 187.269 114.500 C 187.692 148.050, 187.759 181.454, 187.418 188.731 L 186.797 201.962 182.700 204.231 C 178.500 206.557, 175.580 210.491, 174.021 215.925 L 173.140 219 191.678 219 L 210.217 219 209.566 216.250 C 208.439 211.485, 203.711 205.600, 199.395 203.591 L 195.293 201.682 194.618 186.718 C 194.247 178.488, 194.253 145.479, 194.633 113.365 C 195.192 66.168, 195.583 54.761, 196.676 53.854 C 198.734 52.146, 205.297 53.484, 216.656 57.928 C 222.242 60.113, 229.851 62.515, 233.565 63.266 C 240.301 64.627, 240.321 64.641, 241.577 68.896 C 243.933 76.875, 249.258 80.475, 257.671 79.777 C 263.399 79.302, 266.915 76.950, 269.595 71.800 C 271.611 67.925, 271.367 60.114, 269.114 56.420 C 266.332 51.857, 261.937 50.330, 249.500 49.607 C 236.087 48.828, 228.877 47.199, 217.341 42.346 C 208.493 38.623, 205.683 38.247, 192 38.954 C 190.625 39.025, 186.800 38.840, 183.500 38.542 C 179.145 38.150, 175.992 38.508, 172 39.848 M 121.176 64.870 C 120.083 65.563, 120.099 66.301, 121.271 69.105 C 123.068 73.405, 124.952 74.956, 129.216 75.648 C 134.033 76.429, 139 72.248, 139 67.411 L 139 64 130.750 64.015 C 126.213 64.024, 121.904 64.408, 121.176 64.870 M 247.667 64.667 C 244.811 67.522, 250.578 76, 255.376 76 C 259.585 76, 262.877 73.902, 263.998 70.505 C 265.853 64.886, 264.771 64, 256.060 64 C 251.810 64, 248.033 64.300, 247.667 64.667 M 127.014 106.185 C 119.293 122.657, 105.783 153.849, 105.655 155.500 C 105.550 156.851, 106.115 157.500, 107.397 157.500 C 108.912 157.500, 111.503 152.517, 120.294 132.697 C 127.111 117.326, 131.649 108.249, 132.228 108.828 C 132.742 109.342, 137.574 120.053, 142.967 132.631 C 152.431 154.705, 154.983 158.814, 156.604 154.590 C 157.180 153.088, 145.223 124.148, 138 109.566 C 135.078 103.668, 134.049 102.448, 131.768 102.185 C 129.410 101.914, 128.761 102.460, 127.014 106.185 M 250.820 103.750 C 250 104.713, 246.813 111.350, 243.736 118.500 C 240.659 125.650, 234.991 138.691, 231.140 147.480 C 225.840 159.574, 224.404 163.782, 225.236 164.785 C 227.015 166.928, 229.213 163.730, 234.713 151 C 249.727 116.250, 253.484 108.084, 254.147 108.757 C 254.550 109.166, 256.882 114.225, 259.328 120 C 269.761 144.626, 276.065 158.422, 277.209 159.129 C 278.920 160.187, 281.001 158.197, 280.298 156.177 C 278.948 152.300, 257.611 104.393, 256.725 103.250 C 255.344 101.469, 252.561 101.705, 250.820 103.750 M 342.937 107.826 C 339.397 109.931, 332.788 113.820, 328.250 116.469 C 323.712 119.118, 320 121.887, 320 122.622 C 320 123.358, 321.913 124.936, 324.250 126.130 C 329.371 128.746, 347.984 130.273, 359.929 129.058 C 367.821 128.255, 376.726 125.065, 379.437 122.070 C 380.880 120.476, 380.864 120.193, 379.258 118.802 C 374.863 114.995, 354.035 104, 351.220 104 C 350.205 104, 346.477 105.722, 342.937 107.826 M 30.185 113.010 C 23.061 116.230, 6.377 125.840, 4.974 127.531 C 3.872 128.860, 3.995 129.439, 5.751 131.196 C 8.253 133.698, 17.821 134.841, 37.068 134.937 C 50.528 135.004, 57.901 133.562, 62.151 130.028 L 64.500 128.075 61.500 125.630 C 58.126 122.881, 39.579 112.488, 36.500 111.621 C 35.400 111.312, 32.558 111.937, 30.185 113.010 M 345.750 131.723 L 336 132.072 336 134.824 C 336 136.338, 337.012 139.584, 338.250 142.038 C 341.145 147.780, 347.873 151.490, 353.481 150.438 C 360.657 149.091, 365.695 142.015, 364.839 134.482 C 364.453 131.084, 364.286 131.060, 345.750 131.723 M 21.355 138.516 C 20.311 141.238, 21.697 149.115, 23.705 151.864 C 24.763 153.314, 27.307 155.334, 29.358 156.353 C 34.598 158.957, 39.354 157.881, 44.252 152.983 C 47.947 149.288, 48.091 148.895, 47.802 143.316 L 47.500 137.500 34.730 137.220 C 23.856 136.982, 21.870 137.174, 21.355 138.516 M 341.024 156.539 C 330.413 159.515, 322.887 165.696, 318.606 174.949 C 316.714 179.037, 316.467 181.656, 316.180 200.680 C 315.872 220.989, 315.944 221.944, 317.930 223.930 C 319.222 225.222, 321.294 226, 323.443 226 C 328.686 226, 330 223.350, 330 212.777 C 330 205.666, 330.283 204, 331.491 204 C 332.788 204, 333.015 210.449, 333.241 253.750 L 333.500 303.500 351.250 303.773 L 369 304.046 369 251.646 C 369 209.029, 369.251 199.037, 370.342 198.131 C 371.080 197.519, 371.980 197.313, 372.342 197.675 C 372.704 198.037, 373 203.238, 373 209.232 C 373 221.081, 373.746 223.573, 377.751 225.095 C 379.869 225.901, 380.917 225.699, 383.140 224.054 L 385.901 222.014 386.322 227.757 C 386.553 230.916, 386.635 221.575, 386.503 207 C 386.298 184.356, 386 179.772, 384.456 175.500 C 381.997 168.698, 373.222 159.953, 366.500 157.606 C 359.431 155.136, 347.764 154.648, 341.024 156.539 M 30.101 163.108 C 18.147 164.609, 7.738 171.643, 3.208 181.281 C 1.119 185.725, 1 187.295, 1 210.454 C 1 233.629, 1.103 234.985, 2.934 235.965 C 5.938 237.572, 7.881 237.210, 10.545 234.545 C 12.792 232.299, 13 231.320, 13 222.980 C 13 217.729, 13.512 212.943, 14.209 211.684 C 15.393 209.543, 15.430 209.559, 16.090 212.500 C 16.460 214.150, 16.817 235.198, 16.882 259.274 L 17 303.047 34.250 302.774 L 51.500 302.500 52.045 256.500 C 52.345 231.200, 52.697 210.275, 52.827 210 C 52.957 209.725, 53.724 210.374, 54.532 211.441 C 55.601 212.855, 56 216.168, 56 223.634 C 56 233.095, 56.172 234.007, 58.223 235.443 C 61.254 237.567, 64.602 237.398, 67 235 C 68.883 233.117, 68.999 231.674, 68.990 210.250 C 68.981 188.363, 68.890 187.305, 66.587 182.360 C 62.131 172.790, 54.905 166.570, 45.494 164.205 C 38.387 162.418, 36.603 162.291, 30.101 163.108 M 125.750 177.749 C 104.697 177.992, 101 178.256, 101 179.515 C 101 182.342, 108.286 189.035, 114.873 192.258 C 121.077 195.293, 122.176 195.500, 132.096 195.500 C 142.246 195.500, 142.976 195.353, 149.476 192 C 154.104 189.612, 157.214 187.170, 159.262 184.315 C 163.366 178.593, 162.551 176.935, 155.781 177.232 C 152.877 177.359, 139.363 177.592, 125.750 177.749 M 234.738 184.737 L 219.976 185.054 221.473 187.947 C 223.440 191.752, 230.333 197.328, 236.533 200.130 C 240.625 201.980, 243.349 202.386, 252 202.437 C 261.396 202.493, 263.107 202.216, 268.270 199.796 C 274.219 197.009, 284.393 187.680, 283.713 185.637 C 283.319 184.451, 264.309 184.102, 234.738 184.737 M 140 236.296 C 121.969 246.742, 121.013 247.369, 121.006 248.757 C 121.001 249.756, 135.177 249.961, 190.250 249.757 C 233.994 249.595, 259.457 249.145, 259.383 248.535 C 259.247 247.406, 246.968 239.642, 235.418 233.381 L 227.336 229 189.918 229.027 L 152.500 229.054 140 236.296" stroke="none" fill="#040404" fill-rule="evenodd"/></svg>